<?xml version="1.0" encoding="UTF-8"?>
<svg width="32px" height="25px" viewBox="0 0 32 25" version="1.1" xmlns="http://www.w3.org/2000/svg" xmlns:xlink="http://www.w3.org/1999/xlink">
    <!-- Generator: Sketch 51.3 (57544) - http://www.bohemiancoding.com/sketch -->
    <title>avatar</title>
    <desc>Created with Sketch.</desc>
    <defs></defs>
    <g id="Symbols" stroke="none" stroke-width="1" fill="none" fill-rule="evenodd">
        <g id="User-profile-details" transform="translate(-115.000000, -337.000000)" fill="#000000" fill-rule="nonzero">
            <g transform="translate(97.000000, 38.000000)" id="avatar">
                <g transform="translate(18.000000, 299.000000)">
                    <path d="M15.8734036,14 C15.9117661,14 15.9501287,14 15.9961637,14 C16.0115088,14 16.0268538,14 16.0421988,14 C16.0652163,14 16.0959064,14 16.1189239,14 C18.366969,13.9730976 20.1853535,13.4189085 21.5280426,12.3589547 C24.4819585,10.0238278 23.9909179,6.02075327 23.9372103,5.63873943 C23.7453976,2.77094543 21.8119254,1.3989239 20.2160436,0.758647194 C19.0268047,0.279784781 17.6380806,0.0215219062 16.0882339,0 L16.0345263,0 C16.0268538,0 16.0115088,0 16.0038363,0 L15.9578012,0 C15.1061527,0 13.4335458,0.096848578 11.8299915,0.737125288 C10.2187646,1.377402 8.25460238,2.74942352 8.06278967,5.63873943 C8.0090821,6.02075327 7.51804154,10.0238278 10.4719574,12.3589547 C11.806974,13.4189085 13.6253585,13.9730976 15.8734036,14 Z M10.1113495,5.77325135 C10.1113495,5.75710992 10.119022,5.74096849 10.119022,5.73020753 C10.3722148,1.87240584 14.2775218,1.45810915 15.9501287,1.45810915 L15.9808187,1.45810915 C15.9961637,1.45810915 16.0191813,1.45810915 16.0421988,1.45810915 C18.1137762,1.49039201 21.6354577,2.08224443 21.8733055,5.73020753 C21.8733055,5.74634896 21.8733055,5.76249039 21.880978,5.77325135 C21.8886505,5.81091468 22.4257261,9.46963874 19.9858683,11.3958493 C19.0191322,12.159877 17.7301507,12.5365104 16.0345263,12.5472713 C16.0191813,12.5472713 16.0115088,12.5472713 15.9961637,12.5472713 C15.9808187,12.5472713 15.9731462,12.5472713 15.9578012,12.5472713 C14.2698493,12.5365104 12.9731953,12.159877 12.0141317,11.3958493 C9.5819464,9.48039969 10.103677,5.8055342 10.1113495,5.77325135 Z" id="Shape"></path>
                    <path d="M31.9978182,20.116158 C31.9978182,20.1112397 31.9978182,20.1063215 31.9978182,20.1014032 C31.9978182,20.062057 31.9900277,20.0227109 31.9900277,19.9784465 C31.9432845,19.004629 31.8420077,16.7274701 28.4609186,15.9995661 C28.437547,15.9946479 28.4063849,15.9897296 28.3830133,15.9848113 C24.8694852,15.4192103 21.9480373,14.1404601 21.9168752,14.1257053 C21.441653,13.9142197 20.7872486,13.9879938 20.4522559,14.2880082 C20.1172632,14.5880227 20.2341212,15.0011573 20.7093434,15.212643 C20.8417823,15.2716622 23.9424124,16.6340229 27.8220953,17.2635615 C29.6372883,17.6717779 29.839842,18.8964271 29.8943757,20.0177926 C29.8943757,20.062057 29.8943757,20.1014032 29.9021662,20.1407494 C29.9099568,20.5833937 29.8632136,21.2670332 29.7385651,21.6604948 C28.4764996,22.1129756 23.5295144,23.6769854 16.0038645,23.6769854 C8.50937673,23.6769854 3.53122943,22.1080573 2.26137339,21.6555765 C2.13672495,21.2621149 2.08219125,20.5784754 2.09777231,20.1358311 C2.09777231,20.0964849 2.10556283,20.0571388 2.10556283,20.0128743 C2.16009653,18.8915088 2.36265025,17.6668596 4.17784324,17.2586432 C8.05752612,16.6291047 11.1581562,15.2618257 11.2905952,15.2077247 C11.7658174,14.9962391 11.8826753,14.5831044 11.5476826,14.2830899 C11.2126899,13.9830755 10.5582856,13.9093014 10.0830634,14.120787 C10.0519012,14.1355418 7.14603436,15.414292 3.61692524,15.9798931 C3.58576313,15.9848113 3.56239154,15.9897296 3.53901996,15.9946479 C0.15793087,16.7274701 0.0566540081,19.004629 0.00991084097,19.9735282 C0.00991084097,20.0177926 0.00991084097,20.0571388 0.00212031312,20.0964849 C0.00212031312,20.1014032 0.00212031312,20.1063215 0.00212031312,20.1112397 C-0.00567021474,20.3669898 -0.0134607426,21.6801678 0.399437234,22.339216 C0.477342512,22.467091 0.617572014,22.575293 0.804544682,22.649067 C1.03826052,22.7474324 6.63965005,25 16.0116551,25 C25.3836601,25 30.9850496,22.7425141 31.2187654,22.649067 C31.3979476,22.575293 31.5459676,22.467091 31.6238729,22.339216 C32.0133993,21.6850861 32.0056087,20.371908 31.9978182,20.116158 Z" id="Shape"></path>
                </g>
            </g>
        </g>
    </g>
</svg>